<?xml version="1.0" encoding="utf-8"?>
<!-- Generator: Adobe Illustrator 22.1.0, SVG Export Plug-In . SVG Version: 6.00 Build 0)  -->
<svg version="1.1"
	 id="svg7158" inkscape:version="0.91 r13725" xmlns:cc="http://creativecommons.org/ns#" xmlns:dc="http://purl.org/dc/elements/1.1/" xmlns:inkscape="http://www.inkscape.org/namespaces/inkscape" xmlns:ns1="http://sozi.baierouge.fr" xmlns:rdf="http://www.w3.org/1999/02/22-rdf-syntax-ns#" xmlns:sodipodi="http://sodipodi.sourceforge.net/DTD/sodipodi-0.dtd"
	 xmlns="http://www.w3.org/2000/svg" xmlns:xlink="http://www.w3.org/1999/xlink" x="0px" y="0px" viewBox="0 0 453.5 453.5"
	 style="enable-background:new 0 0 453.5 453.5;" xml:space="preserve">
<style type="text/css">
	.st0{fill:#167FFB;}
	.st1{fill:#FFFFFF;}
</style>
<title  id="title7193">Satellite Icon</title>
<g>
	<path class="st0" d="M204.3,287c-20.8,0-37.7-16.8-37.7-37.5v-3.5h35.5v3.5c0,1.2,1,2.2,2.2,2.2h3.5V287H204.3z M268.4,286.9
		c-2.5,0-5-1-6.7-2.7l-20.4-20.3l-7-14.5l-6.6,6.5c-1.8,1.7-4,2.7-6.3,2.7c-2.4,0-4.6-1-6.1-2.9l-17.5-17.4c-3-3-3.1-8.2-0.3-11.9
		l0.1-0.2l6.6-6.7l-14.6-6.9l-20.4-20.3c-1.7-1.7-2.7-4.2-2.7-6.7s1-5,2.7-6.7l9.6-9.6c1.8-1.8,4.2-2.8,6.7-2.8c2.5,0,5,1,6.7,2.8
		l20.4,20.3l7,14.5c3.7-3,8.4-4.6,13.5-4.6c5.9,0,11.2,2.1,15.1,6c4,4,6.2,9.3,6.2,15c0,5-1.7,9.7-4.7,13.4l14.6,7.6l19.8,20.2
		c1.7,1.7,2.7,4.2,2.7,6.7s-1,5-2.7,6.7l-9.1,9C273.4,285.9,270.9,286.9,268.4,286.9z"/>
	<path class="st1" d="M185.8,170.1c1.6,0,3.1,0.6,4.3,1.8l19.9,19.8l5.7,11.9l-11.9,11.9l-11.9-5.7l-19.9-19.8
		c-2.3-2.3-2.3-6.2,0-8.5l9.6-9.6C182.6,170.7,184.2,170.1,185.8,170.1 M233.3,203c4.6,0,9.2,1.6,12.6,5c6.8,6.8,6.8,18.2,0,25
		l-20.7,20.4c-1.1,1.1-2.5,1.7-3.9,1.7c-1.3,0-2.6-0.6-3.4-1.7l-17.6-17.5c-1.7-1.7-1.7-5,0-7.3l20.5-20.6
		C224.3,204.6,228.7,203,233.3,203 M250.4,238.1l11.9,6.2l19.4,19.8c2.3,2.3,2.3,6.2,0,8.5l-9.1,9c-1.1,1.1-2.7,1.7-4.3,1.7
		s-3.1-0.6-4.3-1.7l-19.9-19.8l-5.7-11.9L250.4,238.1 M198.6,249.4c0,3.1,2.5,5.7,5.7,5.7v11.3c-9.4,0-17.1-7.7-17.1-17H198.6
		 M181.5,249.4c0,12.9,9.8,22.7,22.8,22.7v11.3c-18.9,0-34.2-15.2-34.2-34H181.5 M185.8,163.1c-3.4,0-6.8,1.4-9.2,3.8l-9.6,9.6
		c-2.4,2.4-3.8,5.7-3.8,9.2c0,3.5,1.4,6.8,3.8,9.2l19.9,19.8l0.8,0.8l1.1,0.5l9.6,4.5l-3,3l-0.3,0.3l-0.3,0.4
		c-3.8,5.1-3.5,12.3,0.7,16.4l1.7,1.7h-8.6h-7h-11.4h-7v7c0,22.6,18.5,41,41.2,41h7v-7v-11.3v-7v-8.6l1.5,1.5c2.1,2.6,5.3,4,8.6,4
		c3.3,0,6.4-1.3,8.8-3.7l3-3l4.6,9.6l0.5,1.1l0.9,0.8l19.9,19.8c2.4,2.4,5.7,3.7,9.2,3.7c3.5,0,6.8-1.4,9.2-3.7l9.1-9
		c2.4-2.4,3.8-5.7,3.8-9.2c0-3.5-1.4-6.8-3.7-9.2l-19.4-19.8l-0.8-0.8l-1-0.5l-10.6-5.5c2-3.6,3.1-7.8,3.1-12.1
		c0-6.6-2.6-12.8-7.2-17.5c-4.5-4.5-10.8-7-17.6-7c-4.3,0-8.4,1-12,3l-5-10.4l-0.5-1.1l-0.9-0.8L195,166.9
		C192.5,164.5,189.2,163.1,185.8,163.1L185.8,163.1z"/>
</g>
</svg>
